<svg xmlns:xlink="http://www.w3.org/1999/xlink" xmlns="http://www.w3.org/2000/svg" width="160" height="37" viewBox="0 0 160 37" fill="none">
<path d="M56.378 12.4908C50.0988 12.4908 46.5879 15.3941 46.5879 20.458C46.5879 25.4543 50.0988 28.4252 56.378 28.4252C62.7248 28.4252 66.1682 25.5219 66.1682 20.458C66.2357 15.3941 62.7248 12.4908 56.378 12.4908ZM56.378 25.4544C52.1919 25.4544 50.0313 23.6314 50.0313 20.3905C50.0313 17.1496 52.2594 15.3266 56.378 15.3266C60.5642 15.3266 62.7248 17.1496 62.7248 20.3905C62.7248 23.6314 60.5642 25.4544 56.378 25.4544Z" fill="#001133"/>
<path d="M80.4144 14.7867L75.6881 20.5258L70.9618 14.7867H67.0458L72.6498 21.471L67.1133 28.1553H70.8943L75.6881 22.4838L80.4819 28.1553H84.2629L78.7264 21.471L84.3305 14.7867H80.4144Z" fill="#001133"/>
<path d="M94.4582 25.7922L89.1918 14.7867H85.6133L91.1498 26.1973H94.3232C93.3779 28.0878 92.0275 28.5605 89.5969 28.5605C88.179 28.5605 86.9637 28.3579 86.0184 28.0878V30.8561C86.8962 31.1262 88.044 31.2612 89.4619 31.2612C93.2429 31.2612 95.7411 30.451 97.3615 26.94L102.966 14.7867H99.387L94.4582 25.7922Z" fill="#001133"/>
<path d="M111.878 23.4285C108.57 23.4285 106.679 22.5508 106.679 20.3902C106.679 18.2972 108.637 17.3519 111.878 17.3519C114.579 17.3519 117.144 18.2972 117.617 20.5253C117.482 16.4066 115.524 14.5836 110.933 14.5836C106.342 14.5836 103.303 16.4742 103.303 20.5253C103.303 24.3738 106.274 26.0618 111 26.0618C115.321 26.0618 117.415 24.6439 117.55 20.7278C117.009 22.6858 114.714 23.4285 111.878 23.4285Z" fill="#001133"/>
<path d="M117.617 20.5253L117.617 24.6444C117.617 27.3451 116.132 28.4929 110.865 28.4929C108.03 28.4929 105.599 28.0203 104.114 27.5477V30.5185C105.666 30.9236 107.962 31.2612 110.865 31.2612C118.157 31.2612 121.128 29.3707 121.128 24.6444V14.7867H117.685V20.5258L117.617 20.5253Z" fill="#001133"/>
<path d="M132.336 14.5164C127.205 14.5164 123.829 17.0146 123.829 21.5383C123.829 26.2646 127.137 28.3576 133.349 28.3576C136.117 28.3576 138.413 27.9525 140.101 27.3449V24.7116C138.143 25.3868 135.847 25.6569 133.484 25.6569C129.5 25.6569 127.542 24.7792 127.205 22.416H140.303C140.641 17.5547 138.345 14.5164 132.336 14.5164ZM127.34 20.0529C127.88 18.0273 129.568 17.1496 132.268 17.1496C135.442 17.1496 136.86 18.1624 137.197 20.0529H127.34Z" fill="#001133"/>
<path d="M153.334 14.5164C149.486 14.5164 147.055 16.3394 146.717 19.9854C147.73 18.3649 149.486 17.4197 151.916 17.4197C154.684 17.4197 156.237 18.5675 156.237 21.1332V28.0876H159.613V20.6606C159.681 16.7445 157.588 14.5164 153.334 14.5164Z" fill="#001133"/>
<path d="M143.409 14.7867V28.1553H146.717L146.717 19.9854L146.717 14.7867H143.409Z" fill="#001133"/>
<path d="M23.6314 4.86131C21.8084 4.32117 19.7153 4.0511 17.5547 4.0511C6.75182 4.0511 0 10.3978 0 20.5255C0 30.6533 6.75182 37 17.5547 37C28.3577 37 35.1095 30.6533 35.1095 20.5255C35.1095 18.0949 34.7044 15.9343 34.0292 13.9763C27.4799 14.854 23.2263 10.7354 23.6314 4.86131ZM17.5547 26.2646C13.8412 26.2646 11.5456 24.104 11.5456 20.5931C11.5456 17.0821 13.8412 14.9215 17.5547 14.9215C21.2682 14.9215 23.5639 17.0821 23.5639 20.5931C23.5639 24.104 21.2007 26.2646 17.5547 26.2646Z" fill="#001133"/>
<path d="M32.4088 11.3431C35.7276 11.3431 38.4179 8.80383 38.4179 5.67153C38.4179 2.53923 35.7276 0 32.4088 0C29.0901 0 26.3997 2.53923 26.3997 5.67153C26.3997 8.80383 29.0901 11.3431 32.4088 11.3431Z" fill="#001133"/>
</svg>