<svg fill="none" height="13" viewBox="0 0 11 13" width="11" xmlns="http://www.w3.org/2000/svg"><path clip-rule="evenodd" d="m7.01477.91673c0-.397886-.26761-.750338-.66242-.8724379-.3948-.1221001-.82665.0140365-1.06896.3369839l-5.10339 6.801664c-.209471.27918-.2383735.64734-.074852.95345.163522.30612.491944.49867.850546.49867h3.010426v3.28164c0 .4041.2758.7605.67901.8774.4032.117.8387-.033 1.07216-.3693l5.12251-7.3792c.1951-.28098.2133-.64206.0475-.93984-.1658-.29777-.4888-.48405-.8407-.48486l-3.03183-.00697z" fill="#000" fill-rule="evenodd"/></svg>