<svg enable-background="new 0 0 48 48" viewBox="0 0 48 48" xmlns="http://www.w3.org/2000/svg"><circle cx="24" cy="24" fill="#fff" r="24"/><path clip-rule="evenodd" d="m28.8 14.4c3.6 0 6.4 3 6.4 6.5v.3c0 1.7-.6 3.2-1.8 4.4l-8.6 7.6c-.2.2-.5.3-.8.3-.2 0-.5 0-.7-.2l-.1-.1-8.6-7.7c-1.1-1.2-1.8-2.7-1.8-4.4v-.3c0-3.6 2.9-6.5 6.4-6.5 1.9 0 3.6.8 4.7 2.2 1.1-1.3 2.7-2.1 4.5-2.2zm0 1.9c-1.6 0-3.1 1-3.9 2.5-.4.7-1.5.7-1.8 0-.8-1.5-2.2-2.5-3.9-2.5-2.4 0-4.4 2.1-4.4 4.6v.3c0 1.2.4 2.3 1.2 3l8 7.1 7.9-7.1c.7-.7 1.2-1.7 1.2-2.8v-.3-.3c.1-2.4-1.9-4.5-4.3-4.5z" fill-rule="evenodd"/></svg>