<svg fill="none" height="42" viewBox="0 0 51 42" width="51" xmlns="http://www.w3.org/2000/svg"><path clip-rule="evenodd" d="m25.57 8.04234c.1902-2.23399 3.1733-4.40914 5.0015-5.46812.6717 1.17991 1.8029 3.56424 1.5992 5.95021-.2457 2.92367-2.7271 5.66257-3.9998 6.88827-1.0185-1.3008-2.8736-4.1509-2.6009-7.37036zm1.777 9.47166.6532.6635.7256-.5883c.207-.1667 5.0587-4.1542 5.4593-8.90493.3451-4.04634-2.3063-7.824667-2.4191-7.983187l-.4999-.701083-.7862.382409c-.266.130738-6.5603 3.253741-6.9223 7.496191-.4461 5.254 3.616 9.4573 3.7894 9.6354zm-24.35097 4.9943c1.21343 1.3263 3.74609 3.714 6.55011 4.0911 2.29886.309 4.65576-.5997 5.89816-1.1939-.995-1.8266-2.9644-4.6613-5.1131-4.9501-3.09927-.425-5.93913 1.1166-7.33517 2.0529zm7.51177 6.362c-.4027 0-.80893-.0258-1.21852-.0791-4.72229-.6365-8.483743-5.5665-8.640754-5.778l-.648526-.8591.802124-.6953c.184318-.1601 4.570396-3.8888 9.780776-3.1953 4.2257.5703 7.0672 6.8854 7.1867 7.1521l.4079.9216-.8209.5096c-.1468.092-3.3007 2.0235-6.8488 2.0235zm9.4766 6.3072c1.5299 1.537 5.2068 4.8203 8.3025 4.2388 4.0888-.7463 7.07-4.0055 8.3315-5.6332-1.8307-1.1037-5.9965-3.2518-9.7281-2.5611-3.0701.5611-5.6923 2.774-6.9059 3.9555zm7.5916 6.5238c-4.7778 0-9.5983-5.5203-9.8153-5.774l-.6513-.7537.6495-.7592c.1556-.1834 3.8889-4.4889 8.788-5.3833.8843-.1608 1.7783-.1932 2.659-.1323-8.8103-6.222-14.2362-16.5353-14.2362-28.8988h2.0796c0 17.0638 10.9703 29.9804 26.8619 32.6964-2.2994-1.1935-5.2191-3.2539-6.0171-6.2796-1.6701-6.3434 1.6526-12.4625 1.7948-12.7193l.4779-.8664.7927.4883c.2558.1574 6.2779 3.9197 7.7883 9.6463 1.1723 4.4574-.332 9.2294-.6678 10.1992.7171.0401 1.4424.0603 2.1754.0603v2.0605c-3.9059 0-7.6073-.5415-11.0396-1.5603l-.2245.363c-.1624.2593-4 6.3555-10.3641 7.5203-.3487.063-.7008.0926-1.0512.0926zm13.2946-25.9064c-.7799 1.8088-2.2056 5.9383-1.1348 10.0008.7512 2.8543 4.611 4.9054 6.8085 5.77.446-1.5881 1.1652-4.947.366-7.9785-.9813-3.7279-4.4399-6.6202-6.0397-7.7923z" fill="#fff" fill-rule="evenodd"/></svg>