<svg fill="none" height="12" viewBox="0 0 12 12" width="12" xmlns="http://www.w3.org/2000/svg"><path d="m6 0c-3.31714 0-6 2.68286-6 6s2.68286 6 6 6c1.65429 0 3.15429-.6686 4.2429-1.7571 1.0885-1.08861 1.7571-2.58861 1.7571-4.2429 0-3.31714-2.68286-6-6-6zm2.35714 8.34857c-.17143.17143-.38571.24857-.60857.24857s-.43714-.08571-.60857-.24857l-1.74-1.74857c-.16286-.16286-.25714-.37714-.25714-.60857v-2.53714c0-.47143.38571-.85715.85714-.85715s.85714.38572.85714.85715v2.18571l1.49143 1.49143c.34286.33428.34286.88286.00857 1.21714z" fill="#000"/></svg>